<svg fill="none" height="24" viewBox="0 0 24 24" width="24" xmlns="http://www.w3.org/2000/svg"><path d="m3 5v-.75c-.41421 0-.75.33579-.75.75zm18 0h.75c0-.41421-.3358-.75-.75-.75zm-18 .75h18v-1.5h-18zm17.25-.75v12h1.5v-12zm-1.25 13.25h-14v1.5h14zm-15.25-1.25v-12h-1.5v12zm1.25 1.25c-.69036 0-1.25-.5596-1.25-1.25h-1.5c0 1.5188 1.23122 2.75 2.75 2.75zm15.25-1.25c0 .6904-.5596 1.25-1.25 1.25v1.5c1.5188 0 2.75-1.2312 2.75-2.75z" fill="#292929"/><path d="m3 5 9 9 9-9" stroke="#292929" stroke-linecap="round" stroke-linejoin="round" stroke-width="1.5"/></svg>